<svg xmlns:rdf="http://www.w3.org/1999/02/22-rdf-syntax-ns#" xmlns="http://www.w3.org/2000/svg" height="8.4667mm" width="65.748mm" version="1.1" xmlns:cc="http://creativecommons.org/ns#" xmlns:dc="http://purl.org/dc/elements/1.1/" viewBox="0 0 232.96449 29.999998">
<g transform="translate(1635 199.07)">
<g style="fill:#00c800" transform="matrix(0.231 0 0 0.231 -1635 -314.54)">
<path style="fill:#00c800" transform="matrix(2.1053 0 0 2.1053 -52.857 267.51)" d="m42.955 141.48a3.555 3.555 0 0 1 -3.555 3.555 3.555 3.555 0 0 1 -3.555 -3.555 3.555 3.555 0 0 1 3.555 -3.555 3.555 3.555 0 0 1 3.555 3.555z"/>
<path style="fill:#00c800" d="m52.562 557.89h44.907v14.969h-44.907z"/>
<path style="fill:#00c800" transform="matrix(2.1053 0 0 2.1053 36.957 267.51)" d="m42.955 141.48a3.555 3.555 0 0 1 -3.555 3.555 3.555 3.555 0 0 1 -3.555 -3.555 3.555 3.555 0 0 1 3.555 -3.555 3.555 3.555 0 0 1 3.555 3.555z"/>
<path style="fill:#00c800" d="m22.609 527.14h44.907v14.969h-44.907z"/>
<path style="fill:#00c800" transform="matrix(2.1053 0 0 2.1053 6.8608 236.77)" d="m42.955 141.48a3.555 3.555 0 0 1 -3.555 3.555 3.555 3.555 0 0 1 -3.555 -3.555 3.555 3.555 0 0 1 3.555 -3.555 3.555 3.555 0 0 1 3.555 3.555z"/>
<path style="fill:#00c800" transform="matrix(2.1053 0 0 2.1053 36.942 237.06)" d="m42.955 141.48a3.555 3.555 0 0 1 -3.555 3.555 3.555 3.555 0 0 1 -3.555 -3.555 3.555 3.555 0 0 1 3.555 -3.555 3.555 3.555 0 0 1 3.555 3.555z"/>
</g>
<g style="fill:#00a000" transform="matrix(0.231 0 0 0.231 -1635 -314.54)">
<g style="fill:#00a000" transform="rotate(90)">
<path style="fill:#00a000" d="m500.03-74.588v60.561c0 7.642 6.38 14.027 14.03 14.027h12.19v-14.802h-11.319v-59.787h-14.898z"/>
</g>
<g style="fill:#00a000" transform="scale(-1)">
<path style="fill:#00a000" d="m-150-574.11v60.174c0 7.5938 6.3442 13.938 13.938 13.938h12.112v-14.707h-11.246v-59.405h-14.803z"/>
</g>
<g style="fill:#00a000" transform="rotate(-90)">
<path style="fill:#00a000" d="m-600 75.412v60.56c0 7.6426 6.385 14.028 14.028 14.028h12.189v-14.801h-11.319v-59.786h-14.898z"/>
</g>
<g style="fill:#00a000">
<path style="fill:#00a000" d="m0.000080681 525.79v60.169c0 7.5932 6.3437 13.937 13.937 13.937h12.111v-14.706h-11.246v-59.4h-14.802z"/>
</g>
</g>
<g style="fill:#00c800">
<g style="fill:#00c800">
<path style="fill:#9d9d9d" d="m-1583.6-199.07v5.7h-9.63c-2.28 0-4.14 1.86-4.14 4.14v9.12c0 2.28 1.86 4.14 4.14 4.14h13.56v-23.1h-3.93zm-9.63 19.17c-0.12 0-0.18-0.09-0.18-0.21v-9.12c0-0.12 0.06-0.21 0.18-0.21h9.42c0.12 0 0.21 0.09 0.21 0.21v9.12c0 0.12-0.09 0.21-0.21 0.21h-9.42z"/>
<path style="fill:#9d9d9d" d="m-1576.4-175.97h3.93v-17.4h-3.93v17.4zm0-23.1v3.96h3.93v-3.96h-3.93z"/>
<path style="fill:#9d9d9d" d="m-1552.1-173.21v-16.02c0-2.28-1.83-4.14-4.11-4.14h-9.42c-2.28 0-4.14 1.86-4.14 4.14v9.12c0 2.28 1.86 4.14 4.14 4.14h9.6v2.76c0 0.12-0.09 0.18-0.18 0.18h-10.65v3.96h10.65c2.28 0 4.11-1.86 4.11-4.14zm-13.53-6.69c-0.12 0-0.21-0.09-0.21-0.21v-9.12c0-0.12 0.09-0.21 0.21-0.21h9.42c0.09 0 0.18 0.09 0.18 0.21v9.12c0 0.12-0.09 0.21-0.18 0.21h-9.42z"/>
<path style="fill:#9d9d9d" d="m-1549-175.97h3.93v-17.4h-3.93v17.4zm0-23.1v3.96h3.93v-3.96h-3.93z"/>
<path style="fill:#9d9d9d" d="m-1531.2-189.44v-3.93h-6.78v-5.7h-3.93v18.96c0 2.28 1.83 4.14 4.14 4.14h6.57v-3.93h-6.57c-0.12 0-0.21-0.09-0.21-0.21v-9.33h6.78z"/>
<path style="fill:#9d9d9d" d="m-1515.3-193.37h-13.53v3.93h13.53c0.12 0 0.21 0.09 0.21 0.21v2.58h-13.74v6.54c0 2.28 1.86 4.14 4.14 4.14h13.53v-13.26c0-2.28-1.86-4.14-4.14-4.14zm0.21 13.47h-9.6c-0.12 0-0.21-0.09-0.21-0.21v-2.58h9.81v2.79z"/>
<path style="fill:#9d9d9d" d="m-1508.9-199.07v18.96c0 2.28 1.86 4.14 4.14 4.14h3.51v-3.93h-3.51c-0.12 0-0.18-0.09-0.18-0.21v-18.96h-3.96z"/>
<path style="fill:#9d9d9d" d="m-1494.4-193.37c-2.28 0-4.14 1.86-4.14 4.14v13.26h3.93v-13.26c0-0.12 0.09-0.21 0.21-0.21h9.66v-3.93h-9.66z"/>
<path style="fill:#9d9d9d" d="m-1478.5-197.57c-2.28 0-4.14 1.95-4.14 4.23v13.11c0 2.28 1.86 4.26 4.14 4.26h13.11c2.28 0 4.14-1.98 4.14-4.26v-13.11c0-2.28-1.86-4.23-4.14-4.23h-13.11zm11.55 4.02-11.76 9.87v-9.66c0-0.12 0.09-0.21 0.21-0.21h11.55zm-9.99 13.53 11.76-9.87v9.66c0 0.12-0.09 0.21-0.21 0.21h-11.55z"/>
<path style="fill:#9d9d9d" d="m-1453.4-197.57c-2.28 0-4.14 1.95-4.14 4.23v13.11c0 2.28 1.86 4.26 4.14 4.26h13.11c2.28 0 4.14-1.98 4.14-4.26v-13.11c0-2.28-1.86-4.23-4.14-4.23h-13.11zm11.55 4.02-11.76 9.87v-9.66c0-0.12 0.09-0.21 0.21-0.21h11.55zm-9.99 13.53 11.76-9.87v9.66c0 0.12-0.09 0.21-0.21 0.21h-11.55z"/>
<path style="fill:#9d9d9d" d="m-1422-189.44v-3.93h-6.78v-5.7h-3.93v18.96c0 2.28 1.83 4.14 4.14 4.14h6.57v-3.93h-6.57c-0.12 0-0.21-0.09-0.21-0.21v-9.33h6.78z"/>
<path style="fill:#9d9d9d" d="m-1402-189.23c0-2.28-1.83-4.14-4.14-4.14h-9.39c-2.28 0-4.14 1.86-4.14 4.14v2.4c0 2.28 1.86 4.14 4.14 4.14h9.39c0.12 0 0.21 0.06 0.21 0.18v2.4c0 0.12-0.09 0.21-0.21 0.21h-9.39c-0.12 0-0.21-0.09-0.21-0.21v-0.75h-3.93v0.75c0 2.28 1.86 4.14 4.14 4.14h9.39c2.31 0 4.14-1.86 4.14-4.14v-2.4c0-2.28-1.83-4.14-4.14-4.14h-9.39c-0.12 0-0.21-0.06-0.21-0.18v-2.4c0-0.12 0.09-0.21 0.21-0.21h9.39c0.12 0 0.21 0.09 0.21 0.21v0.75h3.93v-0.75z"/>
</g>
<g style="fill:#9d9d9d">
<path style="fill:#9d9d9d" d="m-1547.4-170.3h-1.2044v1.2044h1.2044v-1.2044z"/>
<path style="fill:#9d9d9d" d="m-1545.4-170.3c-0.037 0-0.064-0.0276-0.064-0.0644v-2.7949c0-0.0368 0.028-0.0644 0.064-0.0644h4.128v-1.2044h-4.128c-0.6987 0-1.2687 0.57001-1.2687 1.2687v2.7949c0 0.69872 0.57 1.2687 1.2687 1.2687h4.1463v-1.2044h-4.1463z"/>
<path style="fill:#9d9d9d" d="m-1539.2-174.43c-0.6987 0-1.2687 0.57001-1.2687 1.2687v2.7949c0 0.69872 0.57 1.2687 1.2687 1.2687h2.8776c0.6988 0 1.2688-0.57001 1.2688-1.2687v-2.7949c0-0.69872-0.57-1.2687-1.2688-1.2687h-2.8776zm2.8776 1.2044c0.037 0 0.064 0.0276 0.064 0.0644v2.7949c0 0.0368-0.028 0.0644-0.064 0.0644h-2.8776c-0.037 0-0.064-0.0276-0.064-0.0644v-2.7949c0-0.0368 0.028-0.0644 0.064-0.0644h2.8776z"/>
<path style="fill:#9d9d9d" d="m-1527.5-174.43h-6.6103v5.3324h1.2044v-4.0636c0-0.0368 0.028-0.0644 0.064-0.0644h2.0134c0.028 0 0.055 0.0276 0.055 0.0644v4.0636h1.2135v-4.0636c0-0.0368 0.018-0.0644 0.055-0.0644h2.0042c0.046 0 0.074 0.0276 0.074 0.0644v4.0636h1.1951v-4.0636c0-0.69872-0.57-1.2687-1.2687-1.2687z"/>
</g>
</g>
</g>
</svg>
